<svg width="276" height="259" viewBox="0 0 276 259" fill="none" xmlns="http://www.w3.org/2000/svg">
<path d="M139.16 15.0382V12.1612H145.06V8.39722H142.635V10.7782H139.16V4.56022H139.735V0.897217H137.202V4.56022H137.777V10.7842H134.302V8.40522H131.874V12.1672H137.774V15.0442C132.466 15.271 127.457 17.5682 123.822 21.4433C120.188 25.3185 118.215 30.4633 118.328 35.7752H158.563C158.672 30.471 156.704 25.3342 153.079 21.4602C149.455 17.5862 144.46 15.2817 139.16 15.0382Z" fill="#003876"/>
<path d="M112.992 42.7413H163.724C163.827 42.7414 163.929 42.7212 164.025 42.6817C164.12 42.6423 164.207 42.5844 164.28 42.5114C164.353 42.4384 164.411 42.3517 164.45 42.2562C164.49 42.1608 164.51 42.0586 164.51 41.9553V38.9403C164.51 38.837 164.49 38.7348 164.45 38.6394C164.411 38.5439 164.353 38.4572 164.28 38.3842C164.207 38.3112 164.12 38.2533 164.025 38.2139C163.929 38.1744 163.827 38.1542 163.724 38.1543H112.992C112.889 38.1542 112.786 38.1744 112.691 38.2139C112.596 38.2533 112.509 38.3112 112.436 38.3842C112.363 38.4572 112.305 38.5439 112.266 38.6394C112.226 38.7348 112.206 38.837 112.206 38.9403V41.9553C112.205 42.0587 112.225 42.1611 112.265 42.2567C112.304 42.3523 112.362 42.4392 112.435 42.5123C112.508 42.5854 112.595 42.6432 112.691 42.6825C112.786 42.7219 112.889 42.7418 112.992 42.7413Z" fill="#003876"/>
<path d="M112.992 81.1703H163.724C163.827 81.1704 163.93 81.1502 164.025 81.1107C164.12 81.0713 164.207 81.0134 164.28 80.9404C164.353 80.8673 164.411 80.7806 164.45 80.6852C164.49 80.5898 164.51 80.4875 164.51 80.3843V77.3683C164.51 77.265 164.49 77.1628 164.45 77.0673C164.411 76.9719 164.353 76.8852 164.28 76.8122C164.207 76.7392 164.12 76.6813 164.025 76.6418C163.93 76.6024 163.827 76.5821 163.724 76.5823H112.992C112.889 76.5821 112.786 76.6024 112.691 76.6418C112.596 76.6813 112.509 76.7392 112.436 76.8122C112.363 76.8852 112.305 76.9719 112.266 77.0673C112.226 77.1628 112.206 77.265 112.206 77.3683V80.3823C112.205 80.4859 112.224 80.5888 112.263 80.6848C112.302 80.7808 112.36 80.8681 112.433 80.9414C112.507 81.0148 112.594 81.0729 112.69 81.1122C112.786 81.1515 112.888 81.1712 112.992 81.1703Z" fill="#003876"/>
<path d="M122.168 44.9822C121.974 44.9817 121.782 45.0194 121.602 45.0933C121.422 45.1671 121.259 45.2757 121.122 45.4127C120.984 45.5497 120.875 45.7124 120.8 45.8916C120.726 46.0709 120.687 46.2631 120.687 46.4572V72.8572C120.687 73.2489 120.843 73.6246 121.12 73.9016C121.397 74.1786 121.772 74.3342 122.164 74.3342H128.287C128.481 74.3342 128.673 74.296 128.852 74.2218C129.031 74.1475 129.194 74.0387 129.331 73.9016C129.469 73.7644 129.577 73.6016 129.652 73.4224C129.726 73.2432 129.764 73.0511 129.764 72.8572V46.4572C129.764 46.2634 129.726 46.0714 129.651 45.8924C129.577 45.7134 129.468 45.5508 129.331 45.4138C129.194 45.2768 129.031 45.1682 128.852 45.0942C128.673 45.0201 128.481 44.9821 128.287 44.9822H122.168Z" fill="#003876"/>
<path d="M135.294 44.9822C134.903 44.9822 134.527 45.1376 134.25 45.4141C133.973 45.6907 133.818 46.0658 133.817 46.4572V72.8572C133.817 73.249 133.973 73.6246 134.25 73.9016C134.527 74.1786 134.902 74.3342 135.294 74.3342H141.413C141.805 74.3342 142.18 74.1786 142.457 73.9016C142.734 73.6246 142.89 73.249 142.89 72.8572V46.4572C142.89 46.0655 142.734 45.6898 142.457 45.4128C142.18 45.1358 141.805 44.9802 141.413 44.9802L135.294 44.9822Z" fill="#003876"/>
<path d="M148.227 44.9822C147.836 44.9822 147.46 45.1376 147.183 45.4141C146.906 45.6907 146.751 46.0658 146.75 46.4572V72.8572C146.75 73.0512 146.788 73.2433 146.862 73.4224C146.937 73.6016 147.045 73.7645 147.183 73.9016C147.32 74.0388 147.483 74.1476 147.662 74.2218C147.841 74.296 148.033 74.3342 148.227 74.3342H154.346C154.738 74.3342 155.113 74.1786 155.39 73.9016C155.667 73.6246 155.823 73.249 155.823 72.8572V46.4572C155.823 46.0655 155.667 45.6898 155.39 45.4128C155.113 45.1358 154.738 44.9802 154.346 44.9802L148.227 44.9822Z" fill="#003876"/>
<path d="M33.549 177.78C36.979 164.137 42.755 142.045 59.563 119.544C69.8502 105.829 82.5478 94.1003 97.035 84.9321C74.1323 93.4394 53.9366 107.945 38.561 126.932C10.961 161.251 8.895 198.618 8.729 210.702H28.298C29.078 199.595 30.8351 188.579 33.549 177.78Z" fill="#003876"/>
<path d="M217.554 119.543C234.362 142.037 240.139 164.137 243.569 177.78C246.284 188.583 248.041 199.605 248.82 210.716H268.389C268.223 198.632 266.149 161.26 238.557 126.946C223.182 107.959 202.986 93.4525 180.083 84.9463C194.57 94.1084 207.267 105.832 217.554 119.543Z" fill="#003876"/>
<path d="M114.932 89.7141C103.777 95.184 93.4841 102.259 84.381 110.714C46.361 146.151 41.94 194.926 41.181 210.714H75.075C74.1606 181.6 80.0446 152.673 92.26 126.229C98.35 113.205 105.96 100.948 114.932 89.7141Z" fill="#003876"/>
<path d="M235.215 210.718C234.457 194.927 230.036 146.157 192.015 110.718C182.912 102.263 172.619 95.1881 161.464 89.7183C170.435 100.952 178.046 113.208 184.138 126.229C196.354 152.674 202.237 181.603 201.322 210.718H235.215Z" fill="#003876"/>
<path d="M132.112 210.718V89.7183C119.907 102.892 109.925 117.963 102.557 134.34C91.8603 158.325 86.9428 184.486 88.2 210.718H132.112Z" fill="#003876"/>
<path d="M144.906 89.7141V210.714H188.822C190.079 184.483 185.161 158.324 174.465 134.34C167.092 117.963 157.109 102.892 144.906 89.7141Z" fill="#003876"/>
<path d="M249.092 220.464V216.364C249.091 215.949 248.926 215.551 248.633 215.258C248.339 214.964 247.941 214.799 247.526 214.798H236.389C235.974 214.799 235.576 214.964 235.282 215.258C234.989 215.551 234.824 215.949 234.823 216.364V220.464H202.23V216.364C202.229 215.949 202.064 215.551 201.771 215.258C201.478 214.964 201.08 214.799 200.665 214.798H189.527C189.112 214.799 188.714 214.964 188.42 215.258C188.127 215.551 187.962 215.949 187.961 216.364V220.464H145.295V216.364C145.294 215.949 145.129 215.551 144.836 215.258C144.542 214.964 144.144 214.799 143.729 214.798H132.592C132.177 214.799 131.779 214.964 131.485 215.258C131.192 215.551 131.027 215.949 131.026 216.364V220.464H88.826V216.364C88.8255 215.949 88.6603 215.551 88.3668 215.258C88.0732 214.964 87.6752 214.799 87.26 214.798H76.125C75.7099 214.799 75.3118 214.964 75.0183 215.258C74.7247 215.551 74.5596 215.949 74.559 216.364V220.464H41.853V216.364C41.8525 215.949 41.6873 215.551 41.3938 215.258C41.1002 214.964 40.7022 214.799 40.287 214.798H29.153C28.7379 214.799 28.3398 214.964 28.0463 215.258C27.7527 215.551 27.5876 215.949 27.587 216.364V220.464H0.353027V225.364H275.983V220.464H249.092Z" fill="#003876"/>
<path d="M40.1289 243.304C40.5838 243.304 41.0198 243.123 41.3414 242.801C41.6629 242.479 41.8437 242.043 41.8439 241.588V228.526H27.5759V241.588C27.5762 242.043 27.7569 242.479 28.0785 242.801C28.4 243.123 28.8361 243.304 29.2909 243.304H40.1289Z" fill="#003876"/>
<path d="M87.104 243.304C87.559 243.304 87.9952 243.123 88.3168 242.801C88.6384 242.479 88.819 242.043 88.819 241.588V228.526H74.551V241.588C74.5513 242.043 74.732 242.479 75.0536 242.801C75.3751 243.123 75.8112 243.304 76.266 243.304H87.104Z" fill="#003876"/>
<path d="M143.576 243.304C144.031 243.304 144.467 243.123 144.789 242.801C145.11 242.479 145.291 242.043 145.291 241.588V228.526H131.023V241.588C131.023 242.043 131.204 242.479 131.525 242.801C131.847 243.123 132.283 243.304 132.738 243.304H143.576Z" fill="#003876"/>
<path d="M200.507 243.304C200.962 243.304 201.398 243.123 201.72 242.801C202.041 242.479 202.222 242.043 202.222 241.588V228.526H187.953V241.588C187.953 242.043 188.134 242.479 188.455 242.801C188.777 243.123 189.213 243.304 189.668 243.304H200.507Z" fill="#003876"/>
<path d="M247.377 243.304C247.832 243.304 248.268 243.123 248.59 242.801C248.912 242.479 249.093 242.043 249.093 241.588V228.526H234.824V241.588C234.824 242.043 235.005 242.48 235.327 242.802C235.648 243.123 236.085 243.304 236.54 243.304H247.377Z" fill="#003876"/>
<path d="M274.111 247.438H2.18698C1.69562 247.438 1.22446 247.634 0.877008 247.981C0.529561 248.329 0.334249 248.8 0.333984 249.291L0.333984 256.361C0.334249 256.853 0.529561 257.324 0.877008 257.671C1.22446 258.019 1.69562 258.214 2.18698 258.214H274.106C274.597 258.214 275.069 258.019 275.416 257.671C275.763 257.324 275.959 256.853 275.959 256.361V249.291C275.96 249.048 275.913 248.807 275.82 248.582C275.728 248.357 275.592 248.153 275.42 247.981C275.248 247.808 275.044 247.672 274.82 247.579C274.595 247.486 274.354 247.438 274.111 247.438Z" fill="#003876"/>
</svg>
