<svg width="36" height="34" viewBox="0 0 36 34" fill="none" xmlns="http://www.w3.org/2000/svg">
<path d="M17.7161 1.87781V1.50753H18.4691V1.02483H18.1594V1.3301H17.7161V0.531118H17.7894V0.0605469H17.461V0.531118H17.5344V1.3312H17.0911V1.02483H16.7857V1.50863H17.5388V1.87781C16.8612 1.90677 16.2219 2.20183 15.7579 2.69974C15.2939 3.19766 15.042 3.8588 15.0564 4.54144H20.1908C20.2046 3.86023 19.9537 3.20052 19.4914 2.70294C19.0291 2.20536 18.3921 1.90928 17.7161 1.87781Z" fill="#003876"/>
<path d="M14.3766 5.43725H20.8507C20.8774 5.43725 20.903 5.42657 20.9219 5.40755C20.9408 5.38854 20.9514 5.36275 20.9514 5.33586V4.94904C20.9514 4.92215 20.9408 4.89637 20.9219 4.87735C20.903 4.85834 20.8774 4.84766 20.8507 4.84766H14.3766C14.3499 4.84766 14.3243 4.85834 14.3054 4.87735C14.2865 4.89637 14.2759 4.92215 14.2759 4.94904V5.33696C14.2759 5.35023 14.2785 5.36336 14.2836 5.3756C14.2886 5.38784 14.2961 5.39894 14.3054 5.40827C14.3148 5.41759 14.3259 5.42496 14.3381 5.42993C14.3503 5.43491 14.3634 5.43739 14.3766 5.43725Z" fill="#003876"/>
<path d="M14.3766 10.3728H20.8507C20.8774 10.3728 20.903 10.3621 20.9219 10.3431C20.9408 10.3241 20.9514 10.2983 20.9514 10.2714V9.88349C20.9513 9.87018 20.9485 9.85702 20.9433 9.84478C20.9381 9.83253 20.9306 9.82144 20.9211 9.81212C20.9117 9.80281 20.9005 9.79546 20.8882 9.7905C20.876 9.78554 20.8628 9.78306 20.8496 9.78321H14.3766C14.3499 9.78321 14.3243 9.79389 14.3054 9.8129C14.2865 9.83192 14.2759 9.85771 14.2759 9.8846V10.2725C14.2759 10.2858 14.2785 10.2989 14.2836 10.3111C14.2886 10.3234 14.2961 10.3345 14.3054 10.3438C14.3148 10.3531 14.3259 10.3605 14.3381 10.3655C14.3503 10.3705 14.3634 10.3729 14.3766 10.3728Z" fill="#003876"/>
<path d="M15.5478 5.72466C15.5224 5.72406 15.4972 5.72863 15.4736 5.7381C15.45 5.74757 15.4286 5.76173 15.4106 5.77975C15.3926 5.79776 15.3784 5.81925 15.3689 5.84293C15.3594 5.8666 15.3547 5.89197 15.3551 5.91752V9.3074C15.3551 9.35767 15.375 9.40588 15.4103 9.44143C15.4456 9.47698 15.4935 9.49695 15.5434 9.49695H16.3238C16.3737 9.49695 16.4216 9.47698 16.4569 9.44143C16.4922 9.40588 16.512 9.35767 16.512 9.3074V5.91752C16.512 5.86725 16.4922 5.81903 16.4569 5.78349C16.4216 5.74794 16.3737 5.72797 16.3238 5.72797L15.5478 5.72466Z" fill="#003876"/>
<path d="M17.2223 5.72461C17.1973 5.72461 17.1726 5.72962 17.1495 5.73935C17.1265 5.74908 17.1056 5.76334 17.0881 5.78129C17.0705 5.79924 17.0567 5.82053 17.0475 5.84391C17.0382 5.86729 17.0337 5.8923 17.0341 5.91747V9.30734C17.0341 9.35762 17.0539 9.40583 17.0892 9.44138C17.1245 9.47692 17.1724 9.4969 17.2223 9.4969H18.0027C18.0527 9.4969 18.1006 9.47692 18.1359 9.44138C18.1712 9.40583 18.191 9.35762 18.191 9.30734V5.91747C18.191 5.86719 18.1712 5.81898 18.1359 5.78343C18.1006 5.74789 18.0527 5.72792 18.0027 5.72792L17.2223 5.72461Z" fill="#003876"/>
<path d="M18.873 5.72461C18.848 5.72461 18.8232 5.72962 18.8002 5.73935C18.7771 5.74908 18.7562 5.76334 18.7387 5.78129C18.7212 5.79924 18.7074 5.82053 18.6981 5.84391C18.6888 5.86729 18.6843 5.8923 18.6847 5.91747V9.30734C18.6847 9.35762 18.7046 9.40583 18.7399 9.44138C18.7752 9.47692 18.823 9.4969 18.873 9.4969H19.6534C19.7033 9.4969 19.7512 9.47692 19.7865 9.44138C19.8218 9.40583 19.8416 9.35762 19.8416 9.30734V5.91747C19.8416 5.86719 19.8218 5.81898 19.7865 5.78343C19.7512 5.74789 19.7033 5.72792 19.6534 5.72792L18.873 5.72461Z" fill="#003876"/>
<path d="M4.23471 22.7875C4.81532 20.0889 5.94571 17.5409 7.55441 15.3047C8.8662 13.5412 10.4859 12.0329 12.3342 10.8535C9.41295 11.9484 6.8375 13.8134 4.8772 16.2535C2.46374 19.3203 1.12533 23.1047 1.07043 27.0171H3.56815C3.66656 25.5903 3.88961 24.175 4.23471 22.7875Z" fill="#003876"/>
<path d="M27.72 15.3058C29.3288 17.5419 30.4592 20.0899 31.0397 22.7886C31.3861 24.1767 31.6102 25.5928 31.7095 27.0205H34.2072C34.1525 23.107 32.8141 19.3215 30.4005 16.2535C28.4388 13.8124 25.8613 11.9473 22.938 10.8535C24.7874 12.0328 26.4078 13.5415 27.72 15.3058Z" fill="#003876"/>
<path d="M14.6284 11.4727C13.2048 12.1757 11.8913 13.085 10.7297 14.1716C5.87217 18.7241 5.30958 24.9881 5.21545 27.0202H9.53774C9.41964 23.2794 10.1692 19.5623 11.7268 16.164C12.5066 14.4904 13.4806 12.9156 14.6284 11.4727Z" fill="#003876"/>
<path d="M29.9736 27.0202C29.8773 24.9914 29.3169 18.7252 24.4605 14.1716C23.2988 13.085 21.9853 12.1757 20.5618 11.4727C21.7064 12.9162 22.6774 14.4909 23.4546 16.164C25.0122 19.5623 25.7617 23.2794 25.6437 27.0202H29.9736Z" fill="#003876"/>
<path d="M16.8163 27.0202V11.4727C15.2589 13.1645 13.9851 15.0999 13.0445 17.2033C11.6803 20.2834 11.0528 23.6428 11.2123 27.0114L16.8163 27.0202Z" fill="#003876"/>
<path d="M18.446 11.4727V27.0202H24.05C24.2096 23.6516 23.582 20.2922 22.2178 17.2121C21.2775 15.1059 20.0037 13.1675 18.446 11.4727Z" fill="#003876"/>
<path d="M31.7413 28.2734V27.7466C31.7413 27.6931 31.7202 27.6418 31.6826 27.604C31.6451 27.5662 31.5941 27.5449 31.541 27.5449H30.1181C30.065 27.5449 30.014 27.5662 29.9765 27.604C29.9389 27.6418 29.9178 27.6931 29.9178 27.7466V28.2734H25.7586V27.7466C25.7586 27.6933 25.7377 27.6422 25.7003 27.6044C25.663 27.5666 25.6123 27.5452 25.5594 27.5449H24.1365C24.0834 27.5449 24.0324 27.5662 23.9949 27.604C23.9573 27.6418 23.9362 27.6931 23.9362 27.7466V28.2734H18.4975V27.7466C18.4975 27.6931 18.4764 27.6418 18.4388 27.604C18.4013 27.5662 18.3503 27.5449 18.2972 27.5449H16.8743C16.8212 27.5449 16.7703 27.5662 16.7327 27.604C16.6951 27.6418 16.674 27.6931 16.674 27.7466V28.2734H11.289V27.7466C11.289 27.6931 11.2679 27.6418 11.2303 27.604C11.1927 27.5662 11.1418 27.5449 11.0887 27.5449H9.66577C9.61265 27.5449 9.5617 27.5662 9.52414 27.604C9.48658 27.6418 9.46547 27.6931 9.46547 27.7466V28.2734H5.29861V27.7466C5.29861 27.6931 5.2775 27.6418 5.23994 27.604C5.20238 27.5662 5.15143 27.5449 5.09831 27.5449H3.67761C3.62449 27.5449 3.57354 27.5662 3.53598 27.604C3.49842 27.6418 3.47731 27.6931 3.47731 27.7466V28.2734H0V28.907H35.177V28.2767L31.7413 28.2734Z" fill="#003876"/>
<path d="M5.07859 31.2044C5.13665 31.2044 5.19233 31.1811 5.23338 31.1398C5.27443 31.0985 5.29749 31.0424 5.29749 30.9839V29.3066H3.47729V30.9839C3.47729 31.0424 3.50036 31.0985 3.54141 31.1398C3.58246 31.1811 3.63814 31.2044 3.6962 31.2044H5.07859Z" fill="#003876"/>
<path d="M11.0722 31.2044C11.1303 31.2044 11.186 31.1811 11.227 31.1398C11.2681 31.0985 11.2911 31.0424 11.2911 30.9839V29.3066H9.47095V30.9839C9.47095 31.0424 9.49401 31.0985 9.53506 31.1398C9.57612 31.1811 9.6318 31.2044 9.68985 31.2044H11.0722Z" fill="#003876"/>
<path d="M18.2787 31.2044C18.3367 31.2044 18.3924 31.1811 18.4335 31.1398C18.4745 31.0985 18.4976 31.0424 18.4976 30.9839V29.3066H16.6774V30.9839C16.6774 31.0424 16.7004 31.0985 16.7415 31.1398C16.7825 31.1811 16.8382 31.2044 16.8963 31.2044H18.2787Z" fill="#003876"/>
<path d="M25.544 31.2044C25.6021 31.2044 25.6578 31.1811 25.6988 31.1398C25.7399 31.0985 25.7629 31.0424 25.7629 30.9839V29.3066H23.9417V30.9839C23.9417 31.0424 23.9647 31.0985 24.0058 31.1398C24.0468 31.1811 24.1025 31.2044 24.1606 31.2044H25.544Z" fill="#003876"/>
<path d="M31.5257 31.2044C31.5838 31.2044 31.6395 31.1811 31.6805 31.1398C31.7216 31.0985 31.7446 31.0424 31.7446 30.9839V29.3066H29.9233V30.9839C29.9233 31.0424 29.9464 31.0985 29.9875 31.1398C30.0285 31.1811 30.0842 31.2044 30.1422 31.2044H31.5257Z" fill="#003876"/>
<path d="M34.9373 31.7383H0.236418C0.173716 31.7383 0.113582 31.7634 0.0692452 31.808C0.0249082 31.8526 0 31.9132 0 31.9763L0 32.8844C0 32.9475 0.0249082 33.0081 0.0692452 33.0527C0.113582 33.0974 0.173716 33.1224 0.236418 33.1224H34.9329C34.9956 33.1224 35.0558 33.0974 35.1001 33.0527C35.1444 33.0081 35.1694 32.9475 35.1694 32.8844V31.9763C35.1696 31.9139 35.1454 31.8538 35.102 31.8092C35.0585 31.7647 34.9993 31.7392 34.9373 31.7383Z" fill="#003876"/>
</svg>
